<svg width="1000" height="1001" viewBox="0 0 1000 1001" fill="none" xmlns="http://www.w3.org/2000/svg">
<path d="M898.889 200.667C954.117 200.728 998.938 156.006 999 100.778C999.061 45.5494 954.339 0.728173 899.111 0.666808L898.889 200.667ZM899.111 0.666808L299.111 0.000141361L298.889 200L898.889 200.667L899.111 0.666808Z" fill="white"/>
<path d="M899.889 401C955.117 401.061 999.939 356.34 1000 301.111C1000.06 245.883 955.34 201.061 900.111 201L899.889 401ZM900.111 201L299.111 200.332L298.889 400.332L899.889 401L900.111 201Z" fill="#FF0000"/>
<path d="M899.889 801C955.117 801.061 999.939 756.34 1000 701.111C1000.06 645.883 955.34 601.061 900.111 601L899.889 801ZM900.111 601L299.111 600.332L298.889 800.332L899.889 801L900.111 601Z" fill="#FF0000"/>
<path d="M600 1001L700 1001L700 801L600 801L600 1001ZM100 801C44.7715 801 4.82823e-06 845.771 0 901C-4.82823e-06 956.228 44.7715 1001 100 1001L100 801ZM600 801L100 801L100 1001L600 1001L600 801Z" fill="white"/>
<line x1="700" y1="501" x2="300" y2="501" stroke="white" stroke-width="200"/>
<path d="M300 500C273.736 500 247.728 494.827 223.463 484.776C199.198 474.725 177.15 459.993 158.579 441.421C140.007 422.85 125.275 400.802 115.224 376.537C105.173 352.272 100 326.264 100 300C100 273.736 105.173 247.728 115.224 223.463C125.275 199.198 140.007 177.15 158.579 158.579C177.15 140.007 199.198 125.275 223.463 115.224C247.728 105.173 273.736 100 300 100" stroke="white" stroke-width="200"/>
<path d="M300 701C273.736 701 247.728 695.827 223.463 685.776C199.198 675.725 177.15 660.993 158.579 642.421C140.007 623.85 125.275 601.802 115.224 577.537C105.173 553.272 100 527.264 100 501C100 474.736 105.173 448.728 115.224 424.463C125.275 400.198 140.007 378.15 158.579 359.579C177.15 341.007 199.198 326.275 223.463 316.224C247.728 306.173 273.736 301 300 301" stroke="#FF0000" stroke-width="200"/>
<path d="M700 501C753.043 501 803.914 522.071 841.421 559.579C878.929 597.086 900 647.957 900 701C900 754.043 878.929 804.914 841.421 842.421C803.914 879.929 753.043 901 700 901" stroke="white" stroke-width="200"/>
</svg>
